<svg width="46" height="46" viewBox="0 0 46 46" fill="none" xmlns="http://www.w3.org/2000/svg">
<path d="M33.0417 29.1667H31.0008L30.2775 28.4692C32.8969 25.4314 34.3364 21.5528 34.3333 17.5417C34.3333 14.2206 33.3485 10.9741 31.5034 8.21273C29.6583 5.45135 27.0358 3.29912 23.9676 2.0282C20.8993 0.757276 17.523 0.424745 14.2658 1.07265C11.0085 1.72057 8.01651 3.31982 5.66816 5.66817C3.3198 8.01653 1.72055 11.0085 1.07264 14.2658C0.424729 17.523 0.75726 20.8993 2.02818 23.9676C3.2991 27.0358 5.45133 29.6583 8.21271 31.5034C10.9741 33.3485 14.2206 34.3333 17.5417 34.3333C21.7008 34.3333 25.5242 32.8092 28.4692 30.2775L29.1667 31.0008V33.0417L42.0833 45.9325L45.9325 42.0833L33.0417 29.1667ZM17.5417 29.1667C11.1092 29.1667 5.91666 23.9742 5.91666 17.5417C5.91666 11.1092 11.1092 5.91668 17.5417 5.91668C23.9742 5.91668 29.1667 11.1092 29.1667 17.5417C29.1667 23.9742 23.9742 29.1667 17.5417 29.1667Z" fill="#D9D9D9"/>
</svg>
